<svg xmlns="http://www.w3.org/2000/svg" viewBox="0 0 1600 1000" width="1600" height="1000">
  <title>Wanddesign 09 – Flechtband</title>
  <defs>
    <style>
      .bg { fill: #0a0a0a; }
      path, line, circle { fill: none; }
      path { stroke: #e9e6dc; stroke-width: 3; stroke-linecap: round; stroke-linejoin: round; }
      .thin { stroke: #b9c7d6; stroke-width: 2; }
      .baseline { stroke: #b9c7d6; stroke-width: 1.2; opacity: 0.5; }
      .dot { fill: #c8a24a; stroke: none; }
      .leaf { stroke: #e9e6dc; stroke-width: 2.2; }
      .frame { stroke: #c8a24a; stroke-width: 2; opacity: 0.7; }
      .label { fill: #b9c7d6; font-family: Georgia, 'Times New Roman', serif;
                font-size: 22px; letter-spacing: 4px; opacity: 0.65; }
    </style>
  </defs>
  <rect class="bg" x="0" y="0" width="1600" height="1000"/>
  <rect class="frame" x="40" y="40" width="1520" height="920" rx="6"/>
  <text class="label" x="800.0" y="942" text-anchor="middle">IX · FLECHTBAND</text>
<path d="M 120 500.0 q 110.0 -120.0 220.0 0 q 110.0 120.0 220.0 0 q 110.0 -120.0 220.0 0 q 110.0 120.0 220.0 0 q 110.0 -120.0 220.0 0 q 110.0 120.0 220.0 0 q 110.0 -120.0 220.0 0 " />
<path d="M 120 500.0 q 110.0 120.0 220.0 0 q 110.0 -120.0 220.0 0 q 110.0 120.0 220.0 0 q 110.0 -120.0 220.0 0 q 110.0 120.0 220.0 0 q 110.0 -120.0 220.0 0 q 110.0 120.0 220.0 0 " class="thin"/>
<circle cx="120.0" cy="500.0" r="7" class="dot"/>
<circle cx="340.0" cy="500.0" r="7" class="dot"/>
<circle cx="560.0" cy="500.0" r="7" class="dot"/>
<circle cx="780.0" cy="500.0" r="7" class="dot"/>
<circle cx="1000.0" cy="500.0" r="7" class="dot"/>
<circle cx="1220.0" cy="500.0" r="7" class="dot"/>
<circle cx="1440.0" cy="500.0" r="7" class="dot"/>
<line x1="140.0" y1="300.0" x2="1460.0" y2="300.0" class="baseline"/>
<path d="M 158.4 300.0 c 0 41.4 4.6 50.6 23.0 50.6 c 18.4 0 23.0 -18.4 4.6 -25.3" />
<path d="M 209.1 300.0 c 9.2 -41.4 41.4 -41.4 41.4 -4.6 c 0 23.0 -32.2 18.4 -16.1 -16.1" />
<circle cx="250.5" cy="274.7" r="2.3" class="dot"/>
<path d="M 261.1 300.0 q 20.7 -36.8 41.4 0 q 20.7 36.8 41.4 0" />
<circle cx="281.8" cy="271.5" r="2.1" class="dot"/>
<circle cx="323.2" cy="271.5" r="2.1" class="dot"/>
<path d="M 303.4 300.0 c 23.0 -23.0 -23.0 -27.6 0 -50.6 c 18.4 -13.8 32.2 4.6 23.0 18.4" />
<circle cx="303.4" cy="247.1" r="2.3" class="dot"/>
<path d="M 359.3 300.0 c 9.2 41.4 41.4 41.4 41.4 4.6 c 0 -23.0 -32.2 -18.4 -16.1 16.1" />
<circle cx="400.7" cy="325.3" r="2.3" class="dot"/>
<path d="M 411.0 300.0 c 23.0 -23.0 -23.0 -27.6 0 -50.6 c 18.4 -13.8 32.2 4.6 23.0 18.4" />
<circle cx="411.0" cy="247.1" r="2.3" class="dot"/>
<path d="M 453.9 300.0 c 23.0 -23.0 -23.0 -27.6 0 -50.6 c 18.4 -13.8 32.2 4.6 23.0 18.4" />
<circle cx="453.9" cy="247.1" r="2.3" class="dot"/>
<path d="M 501.3 300.0 c 23.0 -23.0 -23.0 -27.6 0 -50.6 c 18.4 -13.8 32.2 4.6 23.0 18.4" />
<circle cx="501.3" cy="247.1" r="2.3" class="dot"/>
<path d="M 550.0 300.0 c 0 -41.4 4.6 -50.6 23.0 -50.6 c 18.4 0 23.0 18.4 4.6 25.3" />
<path d="M 590.3 300.0 c 23.0 -23.0 -23.0 -27.6 0 -50.6 c 18.4 -13.8 32.2 4.6 23.0 18.4" />
<circle cx="590.3" cy="247.1" r="2.3" class="dot"/>
<path d="M 631.6 300.0 c 23.0 23.0 -23.0 27.6 0 50.6 c 18.4 13.8 32.2 -4.6 23.0 -18.4" />
<circle cx="631.6" cy="352.9" r="2.3" class="dot"/>
<path d="M 672.5 300.0 q 20.7 -36.8 41.4 0 q 20.7 36.8 41.4 0" />
<circle cx="693.2" cy="271.5" r="2.1" class="dot"/>
<circle cx="734.6" cy="271.5" r="2.1" class="dot"/>
<path d="M 716.5 300.0 q 23.0 9.2 23.0 23.0 a 12.9 12.9 0 1 0 0.0 0" />
<circle cx="739.5" cy="323.0" r="2.3" class="dot"/>
<path d="M 759.1 300.0 c 0 41.4 4.6 50.6 23.0 50.6 c 18.4 0 23.0 -18.4 4.6 -25.3" />
<path d="M 802.5 300.0 c 9.2 41.4 41.4 41.4 41.4 4.6 c 0 -23.0 -32.2 -18.4 -16.1 16.1" />
<circle cx="843.9" cy="325.3" r="2.3" class="dot"/>
<path d="M 858.3 300.0 q 20.7 -36.8 41.4 0 q 20.7 36.8 41.4 0" />
<circle cx="879.0" cy="271.5" r="2.1" class="dot"/>
<circle cx="920.4" cy="271.5" r="2.1" class="dot"/>
<path d="M 905.2 300.0 c 0 -41.4 4.6 -50.6 23.0 -50.6 c 18.4 0 23.0 18.4 4.6 25.3" />
<path d="M 948.4 300.0 c 23.0 -23.0 -23.0 -27.6 0 -50.6 c 18.4 -13.8 32.2 4.6 23.0 18.4" />
<circle cx="948.4" cy="247.1" r="2.3" class="dot"/>
<path d="M 989.1 300.0 c 9.2 -41.4 41.4 -41.4 41.4 -4.6 c 0 23.0 -32.2 18.4 -16.1 -16.1" />
<circle cx="1030.5" cy="274.7" r="2.3" class="dot"/>
<path d="M 1040.0 300.0 q 20.7 -36.8 41.4 0 q 20.7 36.8 41.4 0" />
<circle cx="1060.7" cy="271.5" r="2.1" class="dot"/>
<circle cx="1102.1" cy="271.5" r="2.1" class="dot"/>
<path d="M 1092.8 300.0 q 23.0 -9.2 23.0 -23.0 a 12.9 12.9 0 1 1 0.0 0" />
<circle cx="1115.8" cy="277.0" r="2.3" class="dot"/>
<path d="M 1133.0 300.0 c 23.0 -23.0 -23.0 -27.6 0 -50.6 c 18.4 -13.8 32.2 4.6 23.0 18.4" />
<circle cx="1133.0" cy="247.1" r="2.3" class="dot"/>
<path d="M 1176.5 300.0 q 23.0 -9.2 23.0 -23.0 a 12.9 12.9 0 1 1 0.0 0" />
<circle cx="1199.5" cy="277.0" r="2.3" class="dot"/>
<path d="M 1222.1 300.0 q 23.0 9.2 23.0 23.0 a 12.9 12.9 0 1 0 0.0 0" />
<circle cx="1245.1" cy="323.0" r="2.3" class="dot"/>
<path d="M 1278.2 300.0 c 23.0 -23.0 -23.0 -27.6 0 -50.6 c 18.4 -13.8 32.2 4.6 23.0 18.4" />
<circle cx="1278.2" cy="247.1" r="2.3" class="dot"/>
<path d="M 1335.0 300.0 q 23.0 -9.2 23.0 -23.0 a 12.9 12.9 0 1 1 0.0 0" />
<circle cx="1358.0" cy="277.0" r="2.3" class="dot"/>
<path d="M 1382.0 300.0 q 20.7 -36.8 41.4 0 q 20.7 36.8 41.4 0" />
<circle cx="1402.7" cy="271.5" r="2.1" class="dot"/>
<circle cx="1444.1" cy="271.5" r="2.1" class="dot"/>
<line x1="140.0" y1="700.0" x2="1460.0" y2="700.0" class="baseline"/>
<path d="M 158.4 700.0 q 20.7 36.8 41.4 0 q 20.7 -36.8 41.4 0" />
<circle cx="179.1" cy="728.5" r="2.1" class="dot"/>
<circle cx="220.5" cy="728.5" r="2.1" class="dot"/>
<path d="M 204.3 700.0 c 23.0 -23.0 -23.0 -27.6 0 -50.6 c 18.4 -13.8 32.2 4.6 23.0 18.4" />
<circle cx="204.3" cy="647.1" r="2.3" class="dot"/>
<path d="M 261.0 700.0 c 0 41.4 4.6 50.6 23.0 50.6 c 18.4 0 23.0 -18.4 4.6 -25.3" />
<path d="M 316.9 700.0 c 0 -41.4 4.6 -50.6 23.0 -50.6 c 18.4 0 23.0 18.4 4.6 25.3" />
<path d="M 373.2 700.0 q 23.0 -9.2 23.0 -23.0 a 12.9 12.9 0 1 1 0.0 0" />
<circle cx="396.2" cy="677.0" r="2.3" class="dot"/>
<path d="M 414.5 700.0 q 20.7 36.8 41.4 0 q 20.7 -36.8 41.4 0" />
<circle cx="435.2" cy="728.5" r="2.1" class="dot"/>
<circle cx="476.6" cy="728.5" r="2.1" class="dot"/>
<path d="M 461.3 700.0 q 23.0 -9.2 23.0 -23.0 a 12.9 12.9 0 1 1 0.0 0" />
<circle cx="484.3" cy="677.0" r="2.3" class="dot"/>
<path d="M 507.0 700.0 c 23.0 -23.0 -23.0 -27.6 0 -50.6 c 18.4 -13.8 32.2 4.6 23.0 18.4" />
<circle cx="507.0" cy="647.1" r="2.3" class="dot"/>
<path d="M 554.6 700.0 q 20.7 -36.8 41.4 0 q 20.7 36.8 41.4 0" />
<circle cx="575.3" cy="671.5" r="2.1" class="dot"/>
<circle cx="616.7" cy="671.5" r="2.1" class="dot"/>
<path d="M 611.4 700.0 c 0 -41.4 4.6 -50.6 23.0 -50.6 c 18.4 0 23.0 18.4 4.6 25.3" />
<path d="M 660.7 700.0 q 23.0 -9.2 23.0 -23.0 a 12.9 12.9 0 1 1 0.0 0" />
<circle cx="683.7" cy="677.0" r="2.3" class="dot"/>
<path d="M 717.0 700.0 c 23.0 23.0 -23.0 27.6 0 50.6 c 18.4 13.8 32.2 -4.6 23.0 -18.4" />
<circle cx="717.0" cy="752.9" r="2.3" class="dot"/>
<path d="M 773.6 700.0 q 20.7 -36.8 41.4 0 q 20.7 36.8 41.4 0" />
<circle cx="794.3" cy="671.5" r="2.1" class="dot"/>
<circle cx="835.7" cy="671.5" r="2.1" class="dot"/>
<path d="M 830.2 700.0 q 23.0 9.2 23.0 23.0 a 12.9 12.9 0 1 0 0.0 0" />
<circle cx="853.2" cy="723.0" r="2.3" class="dot"/>
<path d="M 874.9 700.0 c 9.2 41.4 41.4 41.4 41.4 4.6 c 0 -23.0 -32.2 -18.4 -16.1 16.1" />
<circle cx="916.3" cy="725.3" r="2.3" class="dot"/>
<path d="M 926.7 700.0 q 20.7 -36.8 41.4 0 q 20.7 36.8 41.4 0" />
<circle cx="947.4" cy="671.5" r="2.1" class="dot"/>
<circle cx="988.8" cy="671.5" r="2.1" class="dot"/>
<path d="M 969.4 700.0 c 9.2 -41.4 41.4 -41.4 41.4 -4.6 c 0 23.0 -32.2 18.4 -16.1 -16.1" />
<circle cx="1010.8" cy="674.7" r="2.3" class="dot"/>
<path d="M 1014.4 700.0 q 20.7 -36.8 41.4 0 q 20.7 36.8 41.4 0" />
<circle cx="1035.1" cy="671.5" r="2.1" class="dot"/>
<circle cx="1076.5" cy="671.5" r="2.1" class="dot"/>
<path d="M 1071.0 700.0 q 20.7 -36.8 41.4 0 q 20.7 36.8 41.4 0" />
<circle cx="1091.7" cy="671.5" r="2.1" class="dot"/>
<circle cx="1133.1" cy="671.5" r="2.1" class="dot"/>
<path d="M 1115.0 700.0 c 9.2 -41.4 41.4 -41.4 41.4 -4.6 c 0 23.0 -32.2 18.4 -16.1 -16.1" />
<circle cx="1156.4" cy="674.7" r="2.3" class="dot"/>
<path d="M 1168.1 700.0 c 9.2 41.4 41.4 41.4 41.4 4.6 c 0 -23.0 -32.2 -18.4 -16.1 16.1" />
<circle cx="1209.5" cy="725.3" r="2.3" class="dot"/>
<path d="M 1214.1 700.0 c 23.0 -23.0 -23.0 -27.6 0 -50.6 c 18.4 -13.8 32.2 4.6 23.0 18.4" />
<circle cx="1214.1" cy="647.1" r="2.3" class="dot"/>
<path d="M 1258.1 700.0 q 20.7 -36.8 41.4 0 q 20.7 36.8 41.4 0" />
<circle cx="1278.8" cy="671.5" r="2.1" class="dot"/>
<circle cx="1320.2" cy="671.5" r="2.1" class="dot"/>
<path d="M 1312.6 700.0 c 9.2 -41.4 41.4 -41.4 41.4 -4.6 c 0 23.0 -32.2 18.4 -16.1 -16.1" />
<circle cx="1354.0" cy="674.7" r="2.3" class="dot"/>
<path d="M 1353.8 700.0 c 0 -41.4 4.6 -50.6 23.0 -50.6 c 18.4 0 23.0 18.4 4.6 25.3" />
<path d="M 1399.9 700.0 c 0 41.4 4.6 50.6 23.0 50.6 c 18.4 0 23.0 -18.4 4.6 -25.3" />
</svg>
